<?xml version="1.0" encoding="UTF-8" standalone="no"?>
<!-- Created with Inkscape (http://www.inkscape.org/) -->

<svg
   width="4.2333331mm"
   height="4.2333336mm"
   viewBox="0 0 4.2333331 4.2333336"
   version="1.1"
   id="svg1"
   xml:space="preserve"
   xmlns="http://www.w3.org/2000/svg"
   xmlns:svg="http://www.w3.org/2000/svg"><defs
     id="defs1" /><g
     id="layer1"
     transform="translate(-104.94488,-22.104122)"><g
       id="g113"
       transform="translate(0.06329923)"><rect
         style="fill:none;stroke:none;stroke-width:0.264583"
         id="rect85"
         width="4.2333331"
         height="4.2333336"
         x="104.88158"
         y="22.104122" /><circle
         cx="106.99217"
         cy="24.20915"
         r="1.7197917"
         fill="#fff7f7"
         stroke="#db3b4b"
         id="circle85"
         style="fill:#e7effd;fill-opacity:1;stroke:#4682fa;stroke-width:0.264583;stroke-opacity:1" /><g
         id="g111"
         transform="translate(-1.7344235,2.7303183)"><path
           d="m 108.46201,22.272583 c 0,0.146129 0.11846,0.264583 0.26458,0.264583 0.14613,0 0.26459,-0.118454 0.26459,-0.264583 v -0.79375 c 0,-0.146127 -0.11846,-0.264584 -0.26459,-0.264584 -0.14612,0 -0.26458,0.11846 -0.26458,0.264584 z"
           fill="#6c707e"
           id="path92"
           style="fill:#4682fa;fill-opacity:1;stroke-width:0.264583" /><path
           d="m 108.72659,20.420499 c -0.14612,0 -0.26458,0.11846 -0.26458,0.264584 0,0.146124 0.11846,0.264583 0.26458,0.264583 0.14613,0 0.26459,-0.118459 0.26459,-0.264583 0,-0.146124 -0.11846,-0.264584 -0.26459,-0.264584 z"
           fill="#6c707e"
           id="path111"
           style="fill:#4682fa;fill-opacity:1;stroke-width:0.264583" /></g></g></g><style
     type="text/css"
     id="style1">
	.st0{fill:#FFAB00;}
</style><style
     type="text/css"
     id="style1-2">
	.st0{fill:#FFAB00;}
</style></svg>
