<?xml version="1.0" encoding="UTF-8" standalone="no"?>
<!-- Created with Inkscape (http://www.inkscape.org/) -->

<svg
   width="4.2333331mm"
   height="4.2333336mm"
   viewBox="0 0 4.2333331 4.2333336"
   version="1.1"
   id="svg1"
   xml:space="preserve"
   xmlns="http://www.w3.org/2000/svg"
   xmlns:svg="http://www.w3.org/2000/svg"><defs
     id="defs1" /><g
     id="layer1"
     transform="translate(-151.54207,-37.629603)"><g
       id="g120"><g
         id="g86"><rect
           x="153.92332"
           y="40.804607"
           width="1.5875"
           height="0.26458332"
           rx="0.13229166"
           fill="#ced0d6"
           id="rect1-40"
           style="stroke-width:0.264583" /><rect
           x="153.92332"
           y="40.010857"
           width="1.5875"
           height="0.26458332"
           rx="0.13229166"
           fill="#ced0d6"
           id="rect2-6"
           style="stroke-width:0.264583" /><rect
           x="153.92332"
           y="39.217106"
           width="1.5875"
           height="0.26458332"
           rx="0.13229166"
           fill="#ced0d6"
           id="rect3-6"
           style="stroke-width:0.264583" /><rect
           x="153.92332"
           y="38.423355"
           width="1.5875"
           height="0.26458332"
           rx="0.13229166"
           fill="#ced0d6"
           id="rect4-46"
           style="stroke-width:0.264583" /><path
           fill-rule="evenodd"
           clip-rule="evenodd"
           d="m 153.03791,39.123563 c -0.0517,-0.05167 -0.13543,-0.05167 -0.18709,0 -0.0517,0.05166 -0.0517,0.135424 0,0.187086 l 0.30333,0.303332 h -1.21521 c -0.0731,0 -0.13229,0.05923 -0.13229,0.132292 0,0.07306 0.0592,0.132291 0.13229,0.132291 h 1.21521 l -0.30333,0.303332 c -0.0517,0.05166 -0.0517,0.135427 0,0.1871 0.0517,0.05165 0.13542,0.05165 0.18709,0 l 0.52916,-0.52918 0.0935,-0.09354 -0.0935,-0.09354 z"
           fill="#ced0d6"
           id="path4-94"
           style="fill:#548af7;fill-opacity:1;stroke-width:0.264583" /></g><rect
         style="fill:none;stroke:none;stroke-width:0.264583"
         id="rect119"
         width="4.2333331"
         height="4.2333336"
         x="151.54207"
         y="37.629604" /></g></g><style
     type="text/css"
     id="style1">
	.st0{fill:#FFAB00;}
</style><style
     type="text/css"
     id="style1-2">
	.st0{fill:#FFAB00;}
</style></svg>
